#define equ_width 120
#define equ_height 30
static char equ_bits[] = {
   0x00, 0x00, 0x00, 0x00, 0x00, 0x00, 0x00, 0x00, 0x00, 0x00, 0x00, 0x00,
   0x00, 0x00, 0x00, 0x00, 0x00, 0x00, 0x00, 0x00, 0x00, 0x00, 0x00, 0x00,
   0x00, 0x00, 0x00, 0x00, 0x00, 0x00, 0x00, 0x00, 0x00, 0x00, 0x00, 0x00,
   0x00, 0x00, 0x00, 0x00, 0x00, 0x00, 0x00, 0x00, 0x00, 0x00, 0x00, 0x00,
   0x00, 0x00, 0x00, 0x00, 0x00, 0x00, 0x00, 0x00, 0x00, 0x00, 0x00, 0x00,
   0x00, 0x00, 0x00, 0x00, 0x00, 0x00, 0x00, 0x00, 0x00, 0x00, 0x00, 0x00,
   0x00, 0x00, 0x00, 0x00, 0x00, 0x00, 0x00, 0x00, 0x00, 0x00, 0x00, 0x00,
   0x00, 0x00, 0x00, 0x00, 0x00, 0x00, 0xc0, 0xff, 0x01, 0x00, 0x00, 0x00,
   0x00, 0x00, 0x00, 0x00, 0x00, 0x00, 0x00, 0x00, 0x00, 0x80, 0xc3, 0x01,
   0x00, 0x00, 0x00, 0x00, 0x00, 0x00, 0x00, 0x00, 0x00, 0x00, 0x00, 0x00,
   0x80, 0x83, 0x01, 0x00, 0x00, 0x00, 0x00, 0x00, 0x00, 0x00, 0x00, 0x00,
   0x00, 0x00, 0x00, 0x80, 0x23, 0x01, 0x00, 0x00, 0x00, 0x00, 0x00, 0x00,
   0x00, 0x00, 0x00, 0x00, 0x00, 0x00, 0x80, 0x23, 0x01, 0x00, 0x00, 0x00,
   0x00, 0x00, 0x00, 0x00, 0x00, 0x00, 0x00, 0x00, 0x00, 0x80, 0x33, 0x00,
   0x00, 0x80, 0x00, 0x00, 0x00, 0x17, 0x00, 0x00, 0x00, 0x00, 0x01, 0x00,
   0x80, 0x3f, 0x00, 0x00, 0x00, 0x00, 0x00, 0x80, 0x19, 0x00, 0x00, 0x00,
   0x00, 0x00, 0x00, 0x80, 0x33, 0x00, 0x00, 0x08, 0x00, 0x00, 0x80, 0x10,
   0x00, 0x00, 0x00, 0x10, 0x00, 0x00, 0x80, 0x23, 0xdc, 0xc6, 0xfc, 0x98,
   0x86, 0x43, 0x00, 0xa6, 0x61, 0x9a, 0xf9, 0x31, 0x0d, 0x80, 0x23, 0x93,
   0x24, 0x89, 0x24, 0x49, 0x42, 0x38, 0x49, 0x92, 0x4c, 0x12, 0x49, 0x12,
   0x80, 0x03, 0x93, 0xc4, 0x89, 0x24, 0xc9, 0x40, 0x10, 0x4f, 0xf2, 0x84,
   0x13, 0x49, 0x12, 0x80, 0x83, 0x93, 0x24, 0x89, 0x24, 0x09, 0x83, 0x10,
   0x41, 0x12, 0x44, 0x12, 0x49, 0x12, 0x80, 0xc3, 0x93, 0x24, 0x89, 0x24,
   0x49, 0x82, 0x19, 0x53, 0x32, 0x45, 0x12, 0x49, 0x12, 0xc0, 0xff, 0x1d,
   0xcb, 0xf2, 0x99, 0xdb, 0x01, 0x0f, 0xee, 0xe6, 0x8e, 0xe5, 0x33, 0x37,
   0x00, 0x00, 0x10, 0x00, 0x00, 0x00, 0x00, 0x00, 0x00, 0x00, 0x00, 0x00,
   0x00, 0x00, 0x00, 0x00, 0x00, 0x10, 0x00, 0x00, 0x00, 0x00, 0x00, 0x00,
   0x00, 0x00, 0x00, 0x00, 0x00, 0x00, 0x00, 0x00, 0x38, 0x00, 0x00, 0x00,
   0x00, 0x00, 0x00, 0x00, 0x00, 0x00, 0x00, 0x00, 0x00, 0x00, 0x00, 0x00,
   0x00, 0x00, 0x00, 0x00, 0x00, 0x00, 0x00, 0x00, 0x00, 0x00, 0x00, 0x00,
   0x00, 0x00, 0x00, 0x00, 0x00, 0x00, 0x00, 0x00, 0x00, 0x00, 0x00, 0x00,
   0x00, 0x00, 0x00, 0x00, 0x00, 0x00, 0x00, 0x00, 0x00, 0x00, 0x00, 0x00,
   0x00, 0x00, 0x00, 0x00, 0x00, 0x00, 0x00, 0x00, 0x00, 0x00, 0x00, 0x00,
   0x00, 0x00, 0x00, 0x00, 0x00, 0x00, 0x00, 0x00, 0x00, 0x00, 0x00, 0x00,
   0x00, 0x00, 0x00, 0x00, 0x00, 0x00, 0x00, 0x00, 0x00, 0x00, 0x00, 0x00,
   0x00, 0x00, 0x00, 0x00, 0x00, 0x00, 0x00, 0x00, 0x00, 0x00, 0x00, 0x00,
   0x00, 0x00, 0x00, 0x00, 0x00, 0x00, 0x00, 0x00, 0x00, 0x00, 0x00, 0x00,
   0x00, 0x00, 0x00, 0x00, 0x00, 0x00};
