#define exec_width 120
#define exec_height 30
static char exec_bits[] = {
   0x00, 0x00, 0x00, 0x00, 0x00, 0x00, 0x00, 0x00, 0x00, 0x00, 0x00, 0x00,
   0x00, 0x00, 0x00, 0x00, 0x00, 0x00, 0x00, 0x00, 0x00, 0x00, 0x00, 0x00,
   0x00, 0x00, 0x00, 0x00, 0x00, 0x00, 0x00, 0x00, 0x00, 0x00, 0x00, 0x00,
   0x00, 0x00, 0x00, 0x00, 0x00, 0x00, 0x00, 0x00, 0x00, 0x00, 0x00, 0x00,
   0x00, 0x00, 0x00, 0x00, 0x00, 0x00, 0x00, 0x00, 0x00, 0x00, 0x00, 0x00,
   0x00, 0x00, 0x00, 0x00, 0x00, 0x00, 0x00, 0x00, 0x00, 0x00, 0x00, 0x00,
   0x00, 0x00, 0x00, 0x00, 0x00, 0x00, 0x00, 0x00, 0x00, 0x00, 0x00, 0x00,
   0x00, 0x00, 0x00, 0x00, 0x00, 0x00, 0x00, 0xf0, 0x02, 0x00, 0x00, 0x00,
   0x00, 0x00, 0x00, 0x00, 0x00, 0x00, 0x00, 0x00, 0x00, 0x00, 0x9c, 0x03,
   0x00, 0x00, 0x00, 0x00, 0x00, 0x00, 0x00, 0x00, 0x00, 0x00, 0x00, 0x00,
   0x00, 0x0e, 0x03, 0x00, 0x00, 0x00, 0x00, 0x00, 0x00, 0x00, 0x00, 0x00,
   0x00, 0x00, 0x00, 0x00, 0x0e, 0x02, 0x00, 0x00, 0x00, 0x00, 0x00, 0x00,
   0x00, 0x00, 0x00, 0x00, 0x00, 0x00, 0x00, 0x1e, 0x00, 0x00, 0x00, 0x00,
   0x00, 0x00, 0x00, 0x00, 0x00, 0x00, 0x00, 0x00, 0x00, 0x00, 0x7e, 0x10,
   0x00, 0x60, 0x00, 0x08, 0x00, 0xf0, 0x07, 0x00, 0x00, 0x00, 0x01, 0x00,
   0x00, 0xfc, 0x01, 0x00, 0x40, 0x00, 0x00, 0x00, 0x20, 0x04, 0x00, 0x00,
   0x00, 0x00, 0x00, 0x00, 0xf0, 0x03, 0x00, 0x40, 0x80, 0x00, 0x00, 0x20,
   0x00, 0x00, 0x00, 0x10, 0x00, 0x00, 0x00, 0xc0, 0x5f, 0x9b, 0x4d, 0xcc,
   0x8f, 0x69, 0x20, 0x62, 0x33, 0x6c, 0xfb, 0x31, 0x0d, 0x00, 0x82, 0x97,
   0x24, 0x49, 0x92, 0x48, 0x92, 0xe0, 0x43, 0x49, 0x52, 0x12, 0x49, 0x12,
   0x00, 0x02, 0x97, 0x24, 0x49, 0x9c, 0x48, 0x92, 0x20, 0x82, 0x78, 0x42,
   0x12, 0x49, 0x12, 0x00, 0x06, 0x97, 0x24, 0x49, 0x92, 0x48, 0x92, 0x20,
   0x80, 0x08, 0x42, 0x12, 0x49, 0x12, 0x00, 0x9e, 0x93, 0x24, 0x49, 0x92,
   0x48, 0x92, 0x20, 0x44, 0x99, 0x52, 0x12, 0x49, 0x12, 0x00, 0xf2, 0xf9,
   0x6d, 0xf6, 0x2c, 0x9f, 0xb9, 0xf1, 0x67, 0x73, 0x8c, 0xe5, 0x33, 0x37,
   0x00, 0x00, 0x00, 0x00, 0x00, 0x00, 0x00, 0x00, 0x00, 0x00, 0x00, 0x00,
   0x00, 0x00, 0x00, 0x00, 0x00, 0x00, 0x00, 0x00, 0x00, 0x00, 0x00, 0x00,
   0x00, 0x00, 0x00, 0x00, 0x00, 0x00, 0x00, 0x00, 0x00, 0x00, 0x00, 0x00,
   0x00, 0x00, 0x00, 0x00, 0x00, 0x00, 0x00, 0x00, 0x00, 0x00, 0x00, 0x00,
   0x00, 0x00, 0x00, 0x00, 0x00, 0x00, 0x00, 0x00, 0x00, 0x00, 0x00, 0x00,
   0x00, 0x00, 0x00, 0x00, 0x00, 0x00, 0x00, 0x00, 0x00, 0x00, 0x00, 0x00,
   0x00, 0x00, 0x00, 0x00, 0x00, 0x00, 0x00, 0x00, 0x00, 0x00, 0x00, 0x00,
   0x00, 0x00, 0x00, 0x00, 0x00, 0x00, 0x00, 0x00, 0x00, 0x00, 0x00, 0x00,
   0x00, 0x00, 0x00, 0x00, 0x00, 0x00, 0x00, 0x00, 0x00, 0x00, 0x00, 0x00,
   0x00, 0x00, 0x00, 0x00, 0x00, 0x00, 0x00, 0x00, 0x00, 0x00, 0x00, 0x00,
   0x00, 0x00, 0x00, 0x00, 0x00, 0x00, 0x00, 0x00, 0x00, 0x00, 0x00, 0x00,
   0x00, 0x00, 0x00, 0x00, 0x00, 0x00, 0x00, 0x00, 0x00, 0x00, 0x00, 0x00,
   0x00, 0x00, 0x00, 0x00, 0x00, 0x00};
