#define grid0_width 120
#define grid0_height 30
static char grid0_bits[] = {
   0x00, 0x00, 0x00, 0x00, 0x00, 0x00, 0x00, 0x00, 0x00, 0x00, 0x00, 0x00,
   0x00, 0x00, 0x00, 0x00, 0x00, 0x00, 0x00, 0x00, 0x00, 0x00, 0x00, 0x00,
   0x00, 0x00, 0x00, 0x00, 0x00, 0x00, 0x00, 0x00, 0x00, 0x00, 0x00, 0x00,
   0x00, 0x00, 0x00, 0x00, 0x00, 0x00, 0x00, 0x00, 0x00, 0x00, 0x00, 0x00,
   0x00, 0x00, 0x00, 0x00, 0x00, 0x00, 0x00, 0x00, 0x00, 0x00, 0x00, 0x00,
   0x00, 0x00, 0x00, 0x00, 0x00, 0x00, 0x00, 0x00, 0x00, 0x00, 0x00, 0x00,
   0x00, 0x00, 0x00, 0x00, 0x00, 0x00, 0x00, 0x00, 0x00, 0x00, 0x00, 0x80,
   0xff, 0xff, 0xff, 0xff, 0xff, 0x0f, 0x00, 0x00, 0x00, 0x00, 0x00, 0x00,
   0x00, 0x00, 0x80, 0x00, 0x00, 0x00, 0x00, 0x00, 0x08, 0x00, 0x00, 0x00,
   0x00, 0x00, 0x00, 0x00, 0x00, 0x80, 0x00, 0x00, 0x00, 0x00, 0x00, 0x08,
   0x00, 0x00, 0x00, 0x00, 0x00, 0x00, 0x00, 0x00, 0x80, 0x00, 0x00, 0x00,
   0x00, 0x00, 0x08, 0x00, 0x00, 0x00, 0x00, 0x00, 0x00, 0x00, 0x00, 0x80,
   0x00, 0x00, 0x00, 0x00, 0x00, 0x08, 0x00, 0x00, 0x00, 0x00, 0x00, 0x00,
   0x00, 0x00, 0x80, 0x00, 0x00, 0x00, 0x00, 0x00, 0x08, 0x00, 0x17, 0x10,
   0x86, 0x01, 0x03, 0x18, 0x00, 0x80, 0x00, 0x86, 0x03, 0x00, 0x00, 0x08,
   0x80, 0x19, 0x00, 0x04, 0x83, 0x01, 0x10, 0x00, 0x80, 0x00, 0x0c, 0x01,
   0x00, 0x00, 0x08, 0x80, 0x10, 0x00, 0x04, 0x83, 0x01, 0x10, 0x00, 0x80,
   0x00, 0x0c, 0x01, 0x00, 0x00, 0x08, 0x40, 0x80, 0x1e, 0x07, 0x45, 0x31,
   0x1c, 0x03, 0x80, 0x00, 0x14, 0x31, 0x0d, 0x03, 0x08, 0x40, 0x38, 0x93,
   0x04, 0x45, 0x49, 0x92, 0x04, 0x80, 0x00, 0x24, 0x49, 0x92, 0x04, 0x08,
   0x40, 0x10, 0x91, 0x04, 0x29, 0x49, 0x92, 0x07, 0x80, 0x00, 0x24, 0x49,
   0x92, 0x07, 0x08, 0x80, 0x10, 0x91, 0x04, 0x29, 0x49, 0x92, 0x00, 0x80,
   0x00, 0x44, 0x49, 0x92, 0x00, 0x08, 0x80, 0x19, 0x91, 0x04, 0x11, 0x49,
   0x92, 0x09, 0x80, 0x00, 0x84, 0x49, 0x92, 0x09, 0x08, 0x00, 0x8f, 0x3b,
   0x8b, 0x93, 0x33, 0x2c, 0x07, 0x80, 0x00, 0x0e, 0x31, 0x37, 0x07, 0x08,
   0x00, 0x00, 0x00, 0x00, 0x00, 0x00, 0x00, 0x00, 0x80, 0x00, 0x00, 0x00,
   0x00, 0x00, 0x08, 0x00, 0x00, 0x00, 0x00, 0x00, 0x00, 0x00, 0x00, 0x80,
   0x00, 0x00, 0x00, 0x00, 0x00, 0x08, 0x00, 0x00, 0x00, 0x00, 0x00, 0x00,
   0x00, 0x00, 0x80, 0x00, 0x00, 0x00, 0x00, 0x00, 0x08, 0x00, 0x00, 0x00,
   0x00, 0x00, 0x00, 0x00, 0x00, 0x80, 0x00, 0x00, 0x00, 0x00, 0x00, 0x08,
   0x00, 0x00, 0x00, 0x00, 0x00, 0x00, 0x00, 0x00, 0x80, 0xff, 0xff, 0xff,
   0xff, 0xff, 0x0f, 0x00, 0x00, 0x00, 0x00, 0x00, 0x00, 0x00, 0x00, 0x00,
   0x00, 0x00, 0x00, 0x00, 0x00, 0x00, 0x00, 0x00, 0x00, 0x00, 0x00, 0x00,
   0x00, 0x00, 0x00, 0x00, 0x00, 0x00, 0x00, 0x00, 0x00, 0x00, 0x00, 0x00,
   0x00, 0x00, 0x00, 0x00, 0x00, 0x00, 0x00, 0x00, 0x00, 0x00, 0x00, 0x00,
   0x00, 0x00, 0x00, 0x00, 0x00, 0x00, 0x00, 0x00, 0x00, 0x00, 0x00, 0x00,
   0x00, 0x00, 0x00, 0x00, 0x00, 0x00, 0x00, 0x00, 0x00, 0x00, 0x00, 0x00,
   0x00, 0x00, 0x00, 0x00, 0x00, 0x00};
