#define move_width 120
#define move_height 30
static char move_bits[] = {
   0x00, 0x00, 0x00, 0x00, 0x00, 0x00, 0x00, 0x00, 0x00, 0x00, 0x00, 0x00,
   0x00, 0x00, 0x00, 0x00, 0x00, 0x00, 0x00, 0x00, 0x00, 0x00, 0x00, 0x00,
   0x00, 0x00, 0x00, 0x00, 0x00, 0x00, 0x00, 0x00, 0x00, 0x00, 0x00, 0x00,
   0x00, 0x00, 0x00, 0x00, 0x00, 0x00, 0x00, 0x00, 0x00, 0x00, 0x00, 0x00,
   0x00, 0x00, 0x00, 0x00, 0x00, 0x00, 0x00, 0x00, 0x00, 0x00, 0x00, 0x00,
   0x00, 0x00, 0x00, 0x00, 0x00, 0x00, 0x00, 0x00, 0x00, 0x00, 0x00, 0x00,
   0x00, 0x40, 0x00, 0x00, 0x00, 0x00, 0x00, 0x00, 0x00, 0x00, 0x00, 0x00,
   0x07, 0x00, 0x00, 0x00, 0xa0, 0x01, 0x00, 0x00, 0x00, 0x00, 0x00, 0x00,
   0x00, 0x00, 0x00, 0x00, 0x00, 0x00, 0x00, 0x10, 0x06, 0x00, 0x00, 0x00,
   0x00, 0x00, 0x00, 0x00, 0x00, 0x10, 0x00, 0x00, 0x00, 0x00, 0x08, 0x08,
   0x00, 0x00, 0x00, 0x00, 0x00, 0x00, 0x00, 0x00, 0x08, 0x30, 0x00, 0x00,
   0x00, 0x04, 0x08, 0x00, 0x00, 0x00, 0x00, 0x00, 0x00, 0x00, 0x00, 0x08,
   0x20, 0x00, 0x00, 0x00, 0x04, 0x10, 0x00, 0x0c, 0x98, 0xc7, 0xf1, 0x3f,
   0x00, 0x00, 0x01, 0x40, 0x00, 0x00, 0xc0, 0x07, 0x10, 0x00, 0x18, 0xcc,
   0x8c, 0x20, 0x21, 0x00, 0x00, 0x01, 0x00, 0x00, 0x00, 0x40, 0x00, 0x10,
   0x00, 0x18, 0x4c, 0x08, 0x11, 0x01, 0x00, 0x00, 0x01, 0x00, 0x00, 0x18,
   0x40, 0x00, 0x20, 0x00, 0x28, 0x2a, 0x10, 0x11, 0x11, 0x00, 0x00, 0x01,
   0x00, 0x00, 0xe0, 0x41, 0x00, 0x20, 0x00, 0x28, 0x2a, 0x10, 0x0a, 0x1f,
   0x00, 0x00, 0x00, 0x00, 0xfe, 0xff, 0x4f, 0x00, 0x20, 0x00, 0x48, 0x29,
   0x10, 0x0a, 0x11, 0x00, 0x00, 0x00, 0x40, 0x00, 0xe0, 0x41, 0x00, 0x20,
   0x00, 0x48, 0x49, 0x08, 0x0e, 0x01, 0x00, 0x00, 0x00, 0x40, 0x00, 0x18,
   0x80, 0x00, 0x10, 0x00, 0x88, 0xc8, 0x0c, 0x04, 0x21, 0x00, 0x00, 0x00,
   0x40, 0x00, 0x00, 0x80, 0x00, 0x10, 0x00, 0x9c, 0x9c, 0x07, 0x84, 0x3f,
   0x00, 0x00, 0x01, 0x40, 0x00, 0x00, 0x80, 0x00, 0x10, 0x00, 0x00, 0x00,
   0x00, 0x00, 0x00, 0x00, 0x00, 0x01, 0x40, 0x00, 0x00, 0x80, 0x00, 0x10,
   0x00, 0x00, 0x00, 0x00, 0x00, 0x00, 0x00, 0x00, 0x02, 0x00, 0x00, 0x00,
   0x00, 0x01, 0x08, 0x00, 0x00, 0x00, 0x00, 0x00, 0x00, 0x00, 0x00, 0x02,
   0x00, 0x00, 0x00, 0x00, 0x01, 0x08, 0x00, 0x00, 0x00, 0x00, 0x00, 0x00,
   0x00, 0x00, 0x00, 0x10, 0x00, 0x00, 0x00, 0x02, 0x04, 0x00, 0x00, 0x00,
   0x00, 0x00, 0x00, 0x00, 0x00, 0x00, 0x08, 0x00, 0x00, 0x00, 0x02, 0x04,
   0x00, 0x00, 0x00, 0x00, 0x00, 0x00, 0x00, 0x00, 0x30, 0x04, 0x00, 0x00,
   0x00, 0x0c, 0x03, 0x00, 0x00, 0x00, 0x00, 0x00, 0x00, 0x00, 0x00, 0x60,
   0x00, 0x00, 0x00, 0x00, 0xf0, 0x00, 0x00, 0x00, 0x00, 0x00, 0x00, 0x00,
   0x00, 0x00, 0x00, 0x00, 0x00, 0x00, 0x00, 0x00, 0x00, 0x00, 0x00, 0x00,
   0x00, 0x00, 0x00, 0x00, 0x00, 0x00, 0x00, 0x00, 0x00, 0x00, 0x00, 0x00,
   0x00, 0x00, 0x00, 0x00, 0x00, 0x00, 0x00, 0x00, 0x00, 0x00, 0x00, 0x00,
   0x00, 0x00, 0x00, 0x00, 0x00, 0x00, 0x00, 0x00, 0x00, 0x00, 0x00, 0x00,
   0x00, 0x00, 0x00, 0x00, 0x00, 0x00};
