#define source_width 120
#define source_height 30
static char source_bits[] = {
   0x00, 0x00, 0x00, 0x00, 0x00, 0x00, 0x00, 0x00, 0x00, 0x00, 0x00, 0x00,
   0x0c, 0x00, 0x00, 0x00, 0x00, 0x00, 0x00, 0x00, 0x00, 0x00, 0x00, 0x00,
   0x00, 0x00, 0x00, 0x33, 0x00, 0x00, 0x00, 0x00, 0x00, 0x00, 0x00, 0x00,
   0x00, 0x00, 0x00, 0x00, 0x00, 0xc0, 0xc0, 0x00, 0x00, 0x00, 0x00, 0x00,
   0x00, 0x00, 0x00, 0x00, 0x00, 0x00, 0x00, 0xc0, 0x27, 0x00, 0x01, 0x00,
   0x00, 0x00, 0x00, 0x00, 0x00, 0x00, 0x00, 0x00, 0x00, 0x00, 0x20, 0x28,
   0x00, 0x01, 0x00, 0x00, 0x00, 0x00, 0x00, 0x00, 0x00, 0x00, 0x00, 0x00,
   0x00, 0x20, 0x28, 0x00, 0x02, 0x00, 0x00, 0x00, 0x00, 0x00, 0x00, 0x00,
   0x00, 0x00, 0x00, 0x00, 0x10, 0x30, 0x00, 0x02, 0x00, 0x00, 0xb8, 0x78,
   0x9c, 0xff, 0x70, 0xfd, 0x11, 0x00, 0x00, 0x10, 0x30, 0x00, 0x01, 0x00,
   0x00, 0xc4, 0xcc, 0x08, 0x89, 0x99, 0x09, 0x11, 0x00, 0x00, 0x20, 0x20,
   0x80, 0x00, 0x00, 0x00, 0x84, 0x84, 0x08, 0x09, 0x09, 0x09, 0x10, 0x00,
   0x00, 0x20, 0x20, 0x40, 0x00, 0x00, 0x00, 0x18, 0x02, 0x09, 0x89, 0x05,
   0x88, 0x08, 0x00, 0x00, 0x40, 0x00, 0x40, 0x00, 0x00, 0x00, 0x70, 0x02,
   0x09, 0xf9, 0x04, 0xf8, 0x08, 0x00, 0x00, 0x40, 0x00, 0x40, 0x00, 0x00,
   0x00, 0xc0, 0x02, 0x09, 0x49, 0x04, 0x88, 0x08, 0x00, 0x00, 0x80, 0x00,
   0xc0, 0x1f, 0x00, 0x00, 0x84, 0x84, 0x08, 0x89, 0x08, 0x09, 0x04, 0x00,
   0x00, 0x40, 0x00, 0x00, 0x20, 0x00, 0x00, 0xcc, 0xcc, 0x98, 0x09, 0x99,
   0x09, 0x05, 0x00, 0x00, 0x20, 0x00, 0x00, 0x40, 0x00, 0x00, 0x74, 0x78,
   0xf0, 0x1c, 0xf3, 0xfc, 0x05, 0x00, 0x00, 0x10, 0x00, 0x00, 0x80, 0x00,
   0x00, 0x00, 0x00, 0x00, 0x00, 0x00, 0x00, 0x00, 0x00, 0x00, 0x08, 0x00,
   0x00, 0x40, 0x00, 0x00, 0x00, 0xd7, 0x0d, 0xbf, 0x03, 0x00, 0x00, 0x00,
   0x00, 0x04, 0x00, 0x00, 0x20, 0x00, 0x00, 0x80, 0x98, 0x18, 0x12, 0x01,
   0x00, 0x00, 0x00, 0x00, 0x02, 0x00, 0x00, 0x18, 0x00, 0x00, 0x80, 0x90,
   0x18, 0x92, 0x00, 0x00, 0x00, 0x00, 0x00, 0x02, 0x00, 0x00, 0x06, 0x00,
   0x00, 0x00, 0x83, 0x28, 0x52, 0x00, 0x00, 0x00, 0x00, 0x00, 0x04, 0x00,
   0x80, 0x01, 0x00, 0x00, 0x00, 0x8e, 0x48, 0x72, 0x00, 0x00, 0x00, 0x00,
   0x00, 0x04, 0x30, 0x40, 0x00, 0x00, 0x00, 0x00, 0x98, 0x48, 0xd2, 0x00,
   0x00, 0x00, 0x00, 0x00, 0x18, 0x4c, 0x80, 0x00, 0x00, 0x00, 0x80, 0x90,
   0x88, 0x92, 0x01, 0x00, 0x00, 0x00, 0x00, 0x60, 0x43, 0x80, 0x00, 0x00,
   0x00, 0x80, 0x99, 0x08, 0x13, 0x03, 0x00, 0x00, 0x00, 0x00, 0x80, 0x80,
   0x00, 0x01, 0x00, 0x00, 0x80, 0xce, 0x1d, 0x3a, 0x07, 0x00, 0x00, 0x00,
   0x00, 0x00, 0x80, 0x00, 0x01, 0x00, 0x00, 0x00, 0x00, 0x00, 0x00, 0x00,
   0x00, 0x00, 0x00, 0x00, 0x00, 0x00, 0x01, 0x02, 0x00, 0x00, 0x00, 0x00,
   0x00, 0x00, 0x00, 0x00, 0x00, 0x00, 0x00, 0x00, 0x00, 0x07, 0x03, 0x00,
   0x00, 0x00, 0x00, 0x00, 0x00, 0x00, 0x00, 0x00, 0x00, 0x00, 0x00, 0x00,
   0xf8, 0x00, 0x00, 0x00, 0x00, 0x00, 0x00, 0x00, 0x00, 0x00, 0x00, 0x00,
   0x00, 0x00, 0x00, 0x00, 0x00, 0x00};
