#define undo_width 120
#define undo_height 30
static char undo_bits[] = {
   0x00, 0x00, 0x00, 0x00, 0x00, 0x00, 0x00, 0x00, 0x00, 0x00, 0x00, 0x00,
   0x00, 0x00, 0x00, 0x00, 0x00, 0x00, 0x00, 0x00, 0x00, 0x00, 0x00, 0x00,
   0x00, 0x00, 0x00, 0x00, 0x00, 0x00, 0x00, 0x00, 0x00, 0x00, 0x00, 0x00,
   0x00, 0x00, 0x00, 0x00, 0x00, 0x00, 0x00, 0x00, 0x00, 0x00, 0x00, 0x00,
   0x00, 0x00, 0x00, 0x00, 0x00, 0x00, 0x00, 0x00, 0x00, 0x00, 0x00, 0x00,
   0x00, 0x00, 0x00, 0x00, 0x00, 0x00, 0x00, 0x00, 0x00, 0x00, 0x00, 0x00,
   0x00, 0x00, 0x00, 0x00, 0x00, 0x00, 0x00, 0x00, 0x00, 0x00, 0x00, 0x00,
   0x00, 0x00, 0x00, 0x00, 0x00, 0x00, 0x00, 0x00, 0x00, 0x00, 0x00, 0x00,
   0x00, 0x00, 0x00, 0x00, 0x80, 0x03, 0x38, 0x00, 0x00, 0x00, 0x00, 0x00,
   0x00, 0x00, 0x00, 0x00, 0x00, 0x00, 0x00, 0x80, 0x03, 0x38, 0x00, 0x00,
   0x00, 0x00, 0x00, 0x00, 0x00, 0x00, 0x00, 0x00, 0x00, 0x00, 0x80, 0x03,
   0x38, 0x00, 0x00, 0x00, 0x00, 0x00, 0x00, 0x00, 0x00, 0x00, 0x00, 0x00,
   0x00, 0x80, 0x03, 0x38, 0x00, 0x00, 0x00, 0x00, 0x00, 0x00, 0x00, 0x00,
   0x00, 0x00, 0x00, 0x00, 0x80, 0x03, 0x38, 0x00, 0x00, 0x00, 0x9c, 0x0f,
   0xff, 0xc1, 0x03, 0x00, 0x00, 0x00, 0x00, 0x80, 0x03, 0x38, 0x00, 0x00,
   0x00, 0x08, 0x19, 0x12, 0x63, 0x06, 0x00, 0x00, 0x00, 0x00, 0x80, 0x03,
   0x38, 0x00, 0x00, 0x00, 0x08, 0x19, 0x12, 0x22, 0x04, 0x00, 0x00, 0x00,
   0x00, 0x80, 0x03, 0x38, 0x00, 0x00, 0x00, 0x08, 0x29, 0x12, 0x14, 0x08,
   0x00, 0x00, 0x00, 0x00, 0x80, 0x03, 0x38, 0x00, 0x00, 0x00, 0x08, 0x49,
   0x12, 0x14, 0x08, 0x00, 0x00, 0x00, 0x00, 0x80, 0x03, 0x38, 0x00, 0x00,
   0x00, 0x08, 0x49, 0x12, 0x14, 0x08, 0x00, 0x00, 0x00, 0x00, 0x80, 0x03,
   0x38, 0x00, 0x00, 0x00, 0x08, 0x89, 0x12, 0x22, 0x04, 0x00, 0x00, 0x00,
   0x00, 0x80, 0x03, 0x38, 0x00, 0x00, 0x00, 0x98, 0x09, 0x13, 0x63, 0x06,
   0x00, 0x00, 0x00, 0x00, 0x80, 0x03, 0x38, 0x00, 0x00, 0x00, 0xf0, 0x1c,
   0xfa, 0xc1, 0x03, 0x00, 0x00, 0x00, 0x00, 0x80, 0x03, 0x38, 0x00, 0x00,
   0x00, 0x00, 0x00, 0x00, 0x00, 0x00, 0x00, 0x00, 0x00, 0x00, 0x80, 0x07,
   0x3c, 0x00, 0x00, 0x00, 0x00, 0x00, 0x00, 0x00, 0x00, 0x00, 0x00, 0x00,
   0x00, 0x00, 0x07, 0x1c, 0x00, 0x00, 0x00, 0x00, 0x00, 0x00, 0x00, 0x00,
   0x00, 0x00, 0x00, 0x00, 0x00, 0x1f, 0x1f, 0x00, 0x00, 0x00, 0x00, 0x00,
   0x00, 0x00, 0x00, 0x00, 0x00, 0x00, 0x00, 0x00, 0xfe, 0x0f, 0x00, 0x00,
   0x00, 0x00, 0x00, 0x00, 0x00, 0x00, 0x00, 0x00, 0x00, 0x00, 0x00, 0xf8,
   0x03, 0x00, 0x00, 0x00, 0x00, 0x00, 0x00, 0x00, 0x00, 0x00, 0x00, 0x00,
   0x00, 0x00, 0x00, 0x00, 0x00, 0x00, 0x00, 0x00, 0x00, 0x00, 0x00, 0x00,
   0x00, 0x00, 0x00, 0x00, 0x00, 0x00, 0x00, 0x00, 0x00, 0x00, 0x00, 0x00,
   0x00, 0x00, 0x00, 0x00, 0x00, 0x00, 0x00, 0x00, 0x00, 0x00, 0x00, 0x00,
   0x00, 0x00, 0x00, 0x00, 0x00, 0x00, 0x00, 0x00, 0x00, 0x00, 0x00, 0x00,
   0x00, 0x00, 0x00, 0x00, 0x00, 0x00, 0x00, 0x00, 0x00, 0x00, 0x00, 0x00,
   0x00, 0x00, 0x00, 0x00, 0x00, 0x00};
